<svg width="100" height="100" viewBox="0 0 100 100" fill="none" xmlns="http://www.w3.org/2000/svg" style="width: 200px; height: 200px;"><style>
     .line-mail3 {animation:line-mail3-arrow 1.6s infinite;}
     @keyframes line-mail3-arrow {
         0%{transform: translate3d(2px, 0, 0);}
         50%{transform: translate3d(4px, 0, 0);}
         100%{transform: translate3d(2px, 0, 0);}
     }
     @media (prefers-reduced-motion: reduce) {
         .line-mail3 {
             animation: none;
         }
     }
    </style><rect class="stroke2 fill2" x="10" y="30.9784" width="41.5227" height="29" rx="6" fill="#fff" stroke="#000" stroke-width="2px" style="animation-duration: 1.6s;"></rect><path class="stroke2 fill2" d="M47.9982 58.244L32.1072 43.5585C31.3457 42.8547 30.1725 42.8497 29.405 43.547L13.2337 58.2382C12.557 58.853 12.9919 59.9784 13.9061 59.9784H47.3195C48.2295 59.9784 48.6665 58.8616 47.9982 58.244Z" fill="#fff" stroke="#000" stroke-width="2px" style="animation-duration: 1.6s;"></path><path class="stroke2 fill2" d="M47.9982 32.8446L32.1072 47.5301C31.3457 48.2339 30.1725 48.2389 29.405 47.5416L13.2337 32.8504C12.557 32.2357 12.9919 31.1102 13.9061 31.1102H47.3195C48.2295 31.1102 48.6665 32.227 47.9982 32.8446Z" fill="#fff" stroke="#000" stroke-width="2px" style="animation-duration: 1.6s;"></path><rect class="stroke1 fill1" x="17" y="37.9784" width="41.5227" height="29" rx="6" fill="#fff" stroke="#000" stroke-width="2px" style="animation-duration: 1.6s;"></rect><path class="stroke1 fill1" d="M54.9982 65.244L39.1072 50.5585C38.3457 49.8547 37.1725 49.8497 36.405 50.547L20.2337 65.2382C19.557 65.853 19.9919 66.9784 20.9061 66.9784H54.3195C55.2295 66.9784 55.6665 65.8616 54.9982 65.244Z" fill="#fff" stroke="#000" stroke-width="2px" style="animation-duration: 1.6s;"></path><path class="stroke1 fill1" d="M54.9982 39.8446L39.1072 54.5301C38.3457 55.2339 37.1725 55.2389 36.405 54.5416L20.2337 39.8504C19.557 39.2357 19.9919 38.1102 20.9061 38.1102H54.3195C55.2295 38.1102 55.6665 39.227 54.9982 39.8446Z" fill="#fff" stroke="#000" stroke-width="2px" style="animation-duration: 1.6s;"></path><path class="line-mail3 stroke1" d="M61.3158 49.7284H90.6842M90.6842 49.7284L78.9866 37.9784M90.6842 49.7284L78.9866 61.2284" stroke="#000" stroke-width="2px" stroke-linecap="round" style="animation-duration: 1.6s;"></path></svg>