<svg xmlns="http://www.w3.org/2000/svg" width="20" height="15" viewBox="0 0 13 8" fill="none">
<path d="M1.34863 3.17578C1.07249 3.17578 0.848633 3.39964 0.848633 3.67578C0.848633 3.95192 1.07249 4.17578 1.34863 4.17578L1.34863 3.17578ZM12.0044 4.02934C12.1997 3.83407 12.1997 3.51749 12.0044 3.32223L8.82245 0.140248C8.62719 -0.0550142 8.31061 -0.0550142 8.11535 0.140248C7.92008 0.33551 7.92008 0.652093 8.11535 0.847355L10.9438 3.67578L8.11535 6.50421C7.92008 6.69947 7.92008 7.01605 8.11535 7.21132C8.31061 7.40658 8.62719 7.40658 8.82245 7.21132L12.0044 4.02934ZM1.34863 4.17578L11.6509 4.17578L11.6509 3.17578L1.34863 3.17578L1.34863 4.17578Z" fill="white"/>
</svg>